<svg id="visual" viewBox="0 0 900 450" width="900" height="450" xmlns="http://www.w3.org/2000/svg" xmlns:xlink="http://www.w3.org/1999/xlink" version="1.1"><rect x="0" y="0" width="900" height="450" fill="#FFFFFF"></rect><path d="M0 338L25 332C50 326 100 314 150 310C200 306 250 310 300 314.7C350 319.3 400 324.7 450 328.8C500 333 550 336 600 336.5C650 337 700 335 750 335C800 335 850 337 875 338L900 339L900 451L875 451C850 451 800 451 750 451C700 451 650 451 600 451C550 451 500 451 450 451C400 451 350 451 300 451C250 451 200 451 150 451C100 451 50 451 25 451L0 451Z" fill="#cdcdcd"></path><path d="M0 370L25 371.5C50 373 100 376 150 374C200 372 250 365 300 358.2C350 351.3 400 344.7 450 341.7C500 338.7 550 339.3 600 345.7C650 352 700 364 750 363.7C800 363.3 850 350.7 875 344.3L900 338L900 451L875 451C850 451 800 451 750 451C700 451 650 451 600 451C550 451 500 451 450 451C400 451 350 451 300 451C250 451 200 451 150 451C100 451 50 451 25 451L0 451Z" fill="#88959b"></path><path d="M0 401L25 399.5C50 398 100 395 150 396C200 397 250 402 300 403.7C350 405.3 400 403.7 450 403.5C500 403.3 550 404.7 600 402C650 399.3 700 392.7 750 390.2C800 387.7 850 389.3 875 390.2L900 391L900 451L875 451C850 451 800 451 750 451C700 451 650 451 600 451C550 451 500 451 450 451C400 451 350 451 300 451C250 451 200 451 150 451C100 451 50 451 25 451L0 451Z" fill="#46606b"></path></svg>