<svg id="visual" viewBox="0 0 675 900" width="675" height="900" xmlns="http://www.w3.org/2000/svg" xmlns:xlink="http://www.w3.org/1999/xlink" version="1.1"><rect x="0" y="0" width="675" height="900" fill="#46606B"></rect><path d="M0 676L18.8 664.3C37.7 652.7 75.3 629.3 112.8 621.5C150.3 613.7 187.7 621.3 225.2 630.5C262.7 639.7 300.3 650.3 337.8 658.5C375.3 666.7 412.7 672.3 450.2 673.3C487.7 674.3 525.3 670.7 562.8 670.8C600.3 671 637.7 675 656.3 677L675 679L675 901L656.3 901C637.7 901 600.3 901 562.8 901C525.3 901 487.7 901 450.2 901C412.7 901 375.3 901 337.8 901C300.3 901 262.7 901 225.2 901C187.7 901 150.3 901 112.8 901C75.3 901 37.7 901 18.8 901L0 901Z" fill="#ffffff"></path><path d="M0 741L18.8 744C37.7 747 75.3 753 112.8 748.8C150.3 744.7 187.7 730.3 225.2 716.7C262.7 703 300.3 690 337.8 684.2C375.3 678.3 412.7 679.7 450.2 692.3C487.7 705 525.3 729 562.8 728.3C600.3 727.7 637.7 702.3 656.3 689.7L675 677L675 901L656.3 901C637.7 901 600.3 901 562.8 901C525.3 901 487.7 901 450.2 901C412.7 901 375.3 901 337.8 901C300.3 901 262.7 901 225.2 901C187.7 901 150.3 901 112.8 901C75.3 901 37.7 901 18.8 901L0 901Z" fill="#9facb2"></path><path d="M0 804L18.8 800.8C37.7 797.7 75.3 791.3 112.8 793C150.3 794.7 187.7 804.3 225.2 807.5C262.7 810.7 300.3 807.3 337.8 807.2C375.3 807 412.7 810 450.2 804.7C487.7 799.3 525.3 785.7 562.8 780.8C600.3 776 637.7 780 656.3 782L675 784L675 901L656.3 901C637.7 901 600.3 901 562.8 901C525.3 901 487.7 901 450.2 901C412.7 901 375.3 901 337.8 901C300.3 901 262.7 901 225.2 901C187.7 901 150.3 901 112.8 901C75.3 901 37.7 901 18.8 901L0 901Z" fill="#46606b"></path></svg>