<svg id="visual" viewBox="0 0 960 300" width="960" height="300" xmlns="http://www.w3.org/2000/svg" xmlns:xlink="http://www.w3.org/1999/xlink" version="1.1"><rect x="0" y="0" width="960" height="300" fill="#46606B"></rect><path d="M0 123L26.7 128.3C53.3 133.7 106.7 144.3 160 145.7C213.3 147 266.7 139 320 145.2C373.3 151.3 426.7 171.7 480 184.7C533.3 197.7 586.7 203.3 640 191.3C693.3 179.3 746.7 149.7 800 149.8C853.3 150 906.7 180 933.3 195L960 210L960 301L933.3 301C906.7 301 853.3 301 800 301C746.7 301 693.3 301 640 301C586.7 301 533.3 301 480 301C426.7 301 373.3 301 320 301C266.7 301 213.3 301 160 301C106.7 301 53.3 301 26.7 301L0 301Z" fill="#ffffff"></path><path d="M0 170L26.7 172.2C53.3 174.3 106.7 178.7 160 176.3C213.3 174 266.7 165 320 171.7C373.3 178.3 426.7 200.7 480 211C533.3 221.3 586.7 219.7 640 208.3C693.3 197 746.7 176 800 173.3C853.3 170.7 906.7 186.3 933.3 194.2L960 202L960 301L933.3 301C906.7 301 853.3 301 800 301C746.7 301 693.3 301 640 301C586.7 301 533.3 301 480 301C426.7 301 373.3 301 320 301C266.7 301 213.3 301 160 301C106.7 301 53.3 301 26.7 301L0 301Z" fill="#ced5d8"></path><path d="M0 205L26.7 203.2C53.3 201.3 106.7 197.7 160 201.3C213.3 205 266.7 216 320 224.8C373.3 233.7 426.7 240.3 480 236.5C533.3 232.7 586.7 218.3 640 210.7C693.3 203 746.7 202 800 206C853.3 210 906.7 219 933.3 223.5L960 228L960 301L933.3 301C906.7 301 853.3 301 800 301C746.7 301 693.3 301 640 301C586.7 301 533.3 301 480 301C426.7 301 373.3 301 320 301C266.7 301 213.3 301 160 301C106.7 301 53.3 301 26.7 301L0 301Z" fill="#9facb2"></path><path d="M0 236L26.7 240.8C53.3 245.7 106.7 255.3 160 252C213.3 248.7 266.7 232.3 320 224.5C373.3 216.7 426.7 217.3 480 223.8C533.3 230.3 586.7 242.7 640 248.7C693.3 254.7 746.7 254.3 800 247.7C853.3 241 906.7 228 933.3 221.5L960 215L960 301L933.3 301C906.7 301 853.3 301 800 301C746.7 301 693.3 301 640 301C586.7 301 533.3 301 480 301C426.7 301 373.3 301 320 301C266.7 301 213.3 301 160 301C106.7 301 53.3 301 26.7 301L0 301Z" fill="#72858e"></path><path d="M0 279L26.7 274.8C53.3 270.7 106.7 262.3 160 259C213.3 255.7 266.7 257.3 320 256.2C373.3 255 426.7 251 480 253.2C533.3 255.3 586.7 263.7 640 268.5C693.3 273.3 746.7 274.7 800 275.8C853.3 277 906.7 278 933.3 278.5L960 279L960 301L933.3 301C906.7 301 853.3 301 800 301C746.7 301 693.3 301 640 301C586.7 301 533.3 301 480 301C426.7 301 373.3 301 320 301C266.7 301 213.3 301 160 301C106.7 301 53.3 301 26.7 301L0 301Z" fill="#46606b"></path></svg>